<?xml version="1.0" encoding="UTF-8"?><svg id="layer2" xmlns="http://www.w3.org/2000/svg" viewBox="0 0 827.1 128.45"><g id="layer1-2"><path d="m55.59,86.33c-2.43-1.96-4.88-3.9-7.27-5.9-1.19-1-2.04-1.32-3.22.17-3.77,4.73-2.05,11.28,3.81,13.11,6.61,2.06,13.11.37,19.33-1.73,16.52-5.58,30.11-16,43.2-27.09,4.68-3.96,8.92-8.43,13.5-12.52,2.18-1.94,1.89-3.04-.44-4.58-1.82-1.2-5.33-1.7-4.82-4.26.42-2.09,3.79-2.27,5.91-3.12,8.95-3.59,17.96-7.04,26.89-10.67,3.24-1.32,4.51-.91,4.16,2.98-1.09,12.22-1.91,24.47-2.9,36.71-.1,1.24.37,2.96-1.04,3.58-1.5.66-2.24-1.02-3.14-1.84-4.65-4.28-4.64-4.32-9.39.17-17.47,16.56-36.91,30.03-59.51,38.73-13.25,5.1-26.17,5.66-38.85-1.59-2.69-1.54-5.1-3.4-7.21-5.66-8.57-9.2-8-19.07,1.93-26.74,3.01-2.32,3-3.6.05-5.72-2.52-1.82-4.73-4.07-6.75-6.5,11.34,4.23,19.73,11.92,26.51,21.52-.25.32-.51.64-.76.95Z" fill="#2d3246" stroke-width="0"/><path d="m69.53,84.71c-4.12-6.51-7.79-12.43-11.57-18.28-9.07-14.06-19.71-26.87-31.18-39.01-3.1-3.28-2.99-3.45,1.3-5,3.29-1.19,6.5-2.63,9.72-4.02,1.22-.53,2.67-1.28,1.84-2.9-1.61-3.15-4.03-5.74-6.57-8.14-1.14-1.08-1.72.37-2.21,1.21-5.45,9.32-12.31,17.42-20.98,23.9-3.59,2.68-.48,3.31,1.23,4.36,19.11,11.76,35.8,26.23,49.38,44.17.76,1,1.87,1.86,1.86,3.9-7.08-7.01-13.82-13.77-21.07-19.97-12.02-10.29-24.71-19.65-38.3-27.77-3.89-2.32-3.94-2.54-.24-5.07C13.76,24.54,23.12,15.44,29.17,3.35c1.69-3.39,3.23-3.06,5.35-.47,2.5,3.05,5.35,5.83,7.71,8.98,1.87,2.5,3.58,2.41,5.89.81,4.71-3.26,9.12-6.87,13-11.08,2.06-2.23,3.49-2.23,4.81.65,1.7,3.72,3.75,7.3,5.23,11.11,1.12,2.89,2.72,3.38,5.4,2.42,5.11-1.83,10.07-3.95,14.7-6.8,4.34-2.67,4.72-2.5,5.69,2.67.57,3.02,1.26,6.03,1.6,9.07.37,3.29,1.98,3.85,4.82,2.85,3.16-1.12,6.44-1.95,9.56-3.18,2.55-1.01,4.05-.47,4.28,2.29.71,8.6,1.12,17.22-.12,25.81-.18,1.27-.46,2.62-2.66,3.36.06-4.19.11-8.14.16-12.09.02-1.17.07-2.34.05-3.51-.21-9.7-.68-10.04-10.04-8-7.18,1.57-14.49,1.98-21.8,1.62-3.54-.18-5.04.07-3.91,4.44,3.42,13.17,5.24,26.65,6.51,40.19.09,1,.01,2.05-.22,3.02-.1.43-.72.94-1.19,1.04-.69.14-.9-.53-1.05-1.12-.43-1.7-1.04-3.37-1.28-5.1-2.14-14.81-6.09-29.17-10.61-43.39-1.06-3.34-.51-4.6,3.25-4.02,5.65.87,11.35.82,17.06.63,2.88-.1,3.79-1.23,3.49-4.1-.96-9.09-.8-8.95-9-4.92-7.52,3.7-15.48,6.22-23.86,7.06-3.76.38-4.44,1.57-2.51,4.93,8.38,14.56,13.97,30.23,17.94,46.49.51,2.1,2.21,5.53-.15,6.25-2.23.68-2.24-3.19-2.81-5.04-5.57-18.11-13.07-35.37-22.21-51.93-1.65-2.99-1.27-4.06,2.24-4.25,3.35-.19,6.65-.95,9.99-1.37,3.49-.43,3.92-2.06,2.62-5.13-3.49-8.32-3.35-8.3-10.1-2.47-6.46,5.57-13.59,10.21-21.49,13.44-3.65,1.5-3.15,2.59-.82,4.98,14.33,14.7,25.79,31.36,33.98,50.22.46,1.07.87,2.17,1.24,3.27.08.23-.11.54-.38,1.75Z" fill="#fb4d30" stroke-width="0"/><path d="m62.38,122.47c31.16-2.83,57.29-15.71,79.13-37.97-3.25,15.99-12.01,28.04-25.84,36-17.16,9.88-35.06,10.54-53.29,1.96Z" fill="#2d3246" stroke-width="0"/><path d="m100.63,40.55c-2.31.62-4.75.09-5.04,2.27-.29,2.24,2.14,2.42,3.71,2.94,2.96.98,5.9,1.97,7.18,5.17,1.09,2.72.39,5.14-1.66,7.19-.8.8-1.89,1.3-2.19,2.61-.8,3.53-2.47,3.57-4.63,1.02-.99-1.16-2.41-.88-3.65-1.16-1.9-.42-2.81-1.62-2.67-3.42.18-2.48,1.96-1.38,3.3-1.3,1.01.06,2.04.07,3.04-.06,1.3-.17,2.79-.37,3.05-1.97.27-1.72-1.24-2.12-2.44-2.59-1.22-.47-2.52-.76-3.74-1.22-6.06-2.32-7.09-7.17-2.54-11.85,2.54-2.61,4.88-3.11,8.15-2.34,1.95.46,3.46,1.1,3.26,3.28-.24,2.58-2.5,1.17-3.13,1.42Z" fill="#fb4d30" stroke-width="0"/><path d="m186.04,118.97c-4.07-4.42-6.11-10.65-6.11-18.69v-55.34c0-8.04,2.04-14.28,6.11-18.69,4.07-4.42,9.98-6.62,17.74-6.62s13.66,2.21,17.74,6.62c4.07,4.42,6.11,10.65,6.11,18.69v10.89h-15.31v-11.92c0-6.38-2.7-9.57-8.1-9.57s-8.1,3.19-8.1,9.57v57.55c0,6.28,2.7,9.42,8.1,9.42s8.1-3.14,8.1-9.42v-15.75h15.31v14.57c0,8.05-2.04,14.28-6.11,18.69-4.07,4.42-9.99,6.62-17.74,6.62s-13.67-2.21-17.74-6.62Z" fill="#fb4d30" stroke-width="0"/><path d="m249.84,21.09h21.93l16.78,103.03h-16.19l-2.94-20.46v.29h-18.4l-2.94,20.17h-15.01l16.78-103.03Zm17.66,68.89l-7.21-50.93h-.29l-7.06,50.93h14.57Z" fill="#fb4d30" stroke-width="0"/><path d="m299.15,118.89c-4.03-4.46-6.04-10.87-6.04-19.21v-5.89h15.31v7.07c0,6.67,2.8,10.01,8.39,10.01,2.75,0,4.83-.81,6.26-2.43,1.42-1.62,2.13-4.24,2.13-7.87,0-4.32-.98-8.12-2.94-11.41-1.96-3.29-5.59-7.24-10.89-11.85-6.67-5.89-11.33-11.21-13.98-15.97-2.65-4.76-3.97-10.13-3.97-16.12,0-8.14,2.06-14.45,6.18-18.91,4.12-4.46,10.11-6.7,17.96-6.7s13.61,2.23,17.59,6.7c3.97,4.47,5.96,10.87,5.96,19.21v4.27h-15.31v-5.3c0-3.53-.69-6.11-2.06-7.73-1.38-1.62-3.39-2.43-6.03-2.43-5.4,0-8.1,3.29-8.1,9.86,0,3.73,1.01,7.21,3.02,10.45,2.01,3.24,5.67,7.16,10.97,11.78,6.77,5.89,11.43,11.24,13.98,16.04,2.55,4.81,3.83,10.45,3.83,16.93,0,8.44-2.09,14.92-6.26,19.43-4.17,4.51-10.23,6.77-18.18,6.77s-13.79-2.23-17.81-6.7Z" fill="#fb4d30" stroke-width="0"/><path d="m350.66,21.09h16.19v41.95h17.37V21.09h16.19v103.03h-16.19v-46.37h-17.37v46.37h-16.19V21.09Z" fill="#fb4d30" stroke-width="0"/><path d="m412.03,21.09h24.43c8.34,0,14.42,1.94,18.25,5.81,3.83,3.88,5.74,9.84,5.74,17.88v4.12c0,5.3-.86,9.62-2.58,12.95-1.72,3.34-4.34,5.74-7.87,7.21v.29c8.04,2.75,12.07,9.91,12.07,21.49v8.83c0,7.95-2.09,14.01-6.26,18.18-4.17,4.17-10.28,6.26-18.33,6.26h-25.46V21.09Zm22.52,41.95c3.24,0,5.67-.83,7.29-2.5,1.62-1.67,2.43-4.46,2.43-8.39v-5.74c0-3.73-.66-6.43-1.99-8.1-1.32-1.67-3.41-2.5-6.26-2.5h-7.8v27.23h6.33Zm2.94,46.36c2.84,0,4.95-.76,6.33-2.28,1.37-1.52,2.06-4.14,2.06-7.87v-8.98c0-4.71-.81-7.97-2.43-9.79-1.62-1.81-4.29-2.72-8.02-2.72h-7.21v31.65h9.27Z" fill="#2d3246" stroke-width="0"/><path d="m476.65,118.82c-4.22-4.51-6.33-10.89-6.33-19.13v-54.17c0-8.24,2.11-14.62,6.33-19.13,4.22-4.51,10.3-6.77,18.25-6.77s14.03,2.26,18.25,6.77c4.22,4.51,6.33,10.89,6.33,19.13v54.17c0,8.24-2.11,14.62-6.33,19.13-4.22,4.51-10.3,6.77-18.25,6.77s-14.03-2.26-18.25-6.77Zm26.64-18.1v-56.23c0-6.77-2.8-10.16-8.39-10.16s-8.39,3.39-8.39,10.16v56.23c0,6.77,2.8,10.16,8.39,10.16s8.39-3.39,8.39-10.16Z" fill="#2d3246" stroke-width="0"/><path d="m535.52,118.82c-4.22-4.51-6.33-10.89-6.33-19.13v-54.17c0-8.24,2.11-14.62,6.33-19.13,4.22-4.51,10.3-6.77,18.25-6.77s14.03,2.26,18.25,6.77c4.22,4.51,6.33,10.89,6.33,19.13v54.17c0,8.24-2.11,14.62-6.33,19.13-4.22,4.51-10.3,6.77-18.25,6.77s-14.03-2.26-18.25-6.77Zm26.64-18.1v-56.23c0-6.77-2.8-10.16-8.39-10.16s-8.39,3.39-8.39,10.16v56.23c0,6.77,2.8,10.16,8.39,10.16s8.39-3.39,8.39-10.16Z" fill="#2d3246" stroke-width="0"/><path d="m592.49,118.89c-4.03-4.46-6.04-10.87-6.04-19.21v-5.89h15.31v7.07c0,6.67,2.8,10.01,8.39,10.01,2.75,0,4.83-.81,6.26-2.43,1.42-1.62,2.13-4.24,2.13-7.87,0-4.32-.98-8.12-2.94-11.41-1.96-3.29-5.59-7.24-10.89-11.85-6.67-5.89-11.33-11.21-13.98-15.97-2.65-4.76-3.97-10.13-3.97-16.12,0-8.14,2.06-14.45,6.18-18.91,4.12-4.46,10.11-6.7,17.96-6.7s13.61,2.23,17.59,6.7c3.97,4.47,5.96,10.87,5.96,19.21v4.27h-15.31v-5.3c0-3.53-.69-6.11-2.06-7.73-1.38-1.62-3.39-2.43-6.03-2.43-5.4,0-8.1,3.29-8.1,9.86,0,3.73,1.01,7.21,3.02,10.45,2.01,3.24,5.67,7.16,10.97,11.78,6.77,5.89,11.43,11.24,13.98,16.04,2.55,4.81,3.83,10.45,3.83,16.93,0,8.44-2.09,14.92-6.26,19.43-4.17,4.51-10.23,6.77-18.18,6.77s-13.79-2.23-17.81-6.7Z" fill="#2d3246" stroke-width="0"/><path d="m656.66,35.8h-16.93v-14.72h50.05v14.72h-16.93v88.31h-16.19V35.8Z" fill="#2d3246" stroke-width="0"/><path d="m697.58,21.09h16.19v103.03h-16.19V21.09Z" fill="#2d3246" stroke-width="0"/><path d="m725.84,21.09h42.83v14.72h-26.64v28.7h20.9v14.72h-20.9v44.89h-16.19V21.09Z" fill="#2d3246" stroke-width="0"/><path d="m791.33,80.26l-19.58-59.17h17.22l11.04,37.83h.29l11.04-37.83h15.75l-19.58,59.17v43.86h-16.19v-43.86Z" fill="#2d3246" stroke-width="0"/></g></svg>